<?xml version="1.0" encoding="UTF-8" standalone="no"?><svg xmlns="http://www.w3.org/2000/svg" xmlns:xlink="http://www.w3.org/1999/xlink" contentScriptType="application/ecmascript" contentStyleType="text/css" height="856px" preserveAspectRatio="none" style="width:1858px;height:856px;" version="1.1" viewBox="0 0 1858 856" width="1858px" zoomAndPan="magnify"><defs><filter height="300%" id="fmqm89qajitih" width="300%" x="-1" y="-1"><feGaussianBlur result="blurOut" stdDeviation="2.0"/><feColorMatrix in="blurOut" result="blurOut2" type="matrix" values="0 0 0 0 0 0 0 0 0 0 0 0 0 0 0 0 0 0 .4 0"/><feOffset dx="4.0" dy="4.0" in="blurOut2" result="blurOut3"/><feBlend in="SourceGraphic" in2="blurOut3" mode="normal"/></filter></defs><g><text fill="#000000" font-family="sans-serif" font-size="14" font-weight="bold" lengthAdjust="spacingAndGlyphs" textLength="330" x="764" y="22.9951">webnetes Resource Modification Protocol</text><rect fill="#DDDDDD" height="811.25" style="stroke: #A80036; stroke-width: 1.0;" width="189" x="421.5" y="34.2969"/><text fill="#000000" font-family="sans-serif" font-size="13" font-weight="bold" lengthAdjust="spacingAndGlyphs" textLength="53" x="489.5" y="46.3638">Node 1</text><rect fill="#DDDDDD" height="811.25" style="stroke: #A80036; stroke-width: 1.0;" width="533.5" x="753.5" y="34.2969"/><text fill="#000000" font-family="sans-serif" font-size="13" font-weight="bold" lengthAdjust="spacingAndGlyphs" textLength="53" x="993.75" y="46.3638">Node 2</text><rect fill="#DDDDDD" height="811.25" style="stroke: #A80036; stroke-width: 1.0;" width="533.5" x="1289" y="34.2969"/><text fill="#000000" font-family="sans-serif" font-size="13" font-weight="bold" lengthAdjust="spacingAndGlyphs" textLength="53" x="1529.25" y="46.3638">Node 3</text><line style="stroke: #A80036; stroke-width: 1.0; stroke-dasharray: 5.0,5.0;" x1="66" x2="66" y1="116.5938" y2="759.25"/><line style="stroke: #A80036; stroke-width: 1.0; stroke-dasharray: 5.0,5.0;" x1="470.5" x2="470.5" y1="116.5938" y2="759.25"/><line style="stroke: #A80036; stroke-width: 1.0; stroke-dasharray: 5.0,5.0;" x1="566.5" x2="566.5" y1="116.5938" y2="759.25"/><line style="stroke: #A80036; stroke-width: 1.0; stroke-dasharray: 5.0,5.0;" x1="802.5" x2="802.5" y1="116.5938" y2="759.25"/><line style="stroke: #A80036; stroke-width: 1.0; stroke-dasharray: 5.0,5.0;" x1="1243" x2="1243" y1="116.5938" y2="759.25"/><line style="stroke: #A80036; stroke-width: 1.0; stroke-dasharray: 5.0,5.0;" x1="1338" x2="1338" y1="116.5938" y2="759.25"/><line style="stroke: #A80036; stroke-width: 1.0; stroke-dasharray: 5.0,5.0;" x1="1778.5" x2="1778.5" y1="116.5938" y2="759.25"/><text fill="#000000" font-family="sans-serif" font-size="14" lengthAdjust="spacingAndGlyphs" textLength="110" x="8" y="113.292">External System</text><ellipse cx="66" cy="43.2969" fill="#FEFECE" filter="url(#fmqm89qajitih)" rx="8" ry="8" style="stroke: #A80036; stroke-width: 2.0;"/><path d="M66,51.2969 L66,78.2969 M53,59.2969 L79,59.2969 M66,78.2969 L53,93.2969 M66,78.2969 L79,93.2969 " fill="none" filter="url(#fmqm89qajitih)" style="stroke: #A80036; stroke-width: 2.0;"/><text fill="#000000" font-family="sans-serif" font-size="14" lengthAdjust="spacingAndGlyphs" textLength="110" x="8" y="771.2451">External System</text><ellipse cx="66" cy="784.5469" fill="#FEFECE" filter="url(#fmqm89qajitih)" rx="8" ry="8" style="stroke: #A80036; stroke-width: 2.0;"/><path d="M66,792.5469 L66,819.5469 M53,800.5469 L79,800.5469 M66,819.5469 L53,834.5469 M66,819.5469 L79,834.5469 " fill="none" filter="url(#fmqm89qajitih)" style="stroke: #A80036; stroke-width: 2.0;"/><rect fill="#FEFECE" filter="url(#fmqm89qajitih)" height="30.2969" style="stroke: #A80036; stroke-width: 1.5;" width="87" x="425.5" y="81.2969"/><text fill="#000000" font-family="sans-serif" font-size="14" lengthAdjust="spacingAndGlyphs" textLength="73" x="432.5" y="101.292">Manager 1</text><rect fill="#FEFECE" filter="url(#fmqm89qajitih)" height="30.2969" style="stroke: #A80036; stroke-width: 1.5;" width="87" x="425.5" y="758.25"/><text fill="#000000" font-family="sans-serif" font-size="14" lengthAdjust="spacingAndGlyphs" textLength="73" x="432.5" y="778.2451">Manager 1</text><rect fill="#FEFECE" filter="url(#fmqm89qajitih)" height="30.2969" style="stroke: #A80036; stroke-width: 1.5;" width="76" x="526.5" y="81.2969"/><text fill="#000000" font-family="sans-serif" font-size="14" lengthAdjust="spacingAndGlyphs" textLength="62" x="533.5" y="101.292">Worker 1</text><rect fill="#FEFECE" filter="url(#fmqm89qajitih)" height="30.2969" style="stroke: #A80036; stroke-width: 1.5;" width="76" x="526.5" y="758.25"/><text fill="#000000" font-family="sans-serif" font-size="14" lengthAdjust="spacingAndGlyphs" textLength="62" x="533.5" y="778.2451">Worker 1</text><rect fill="#FEFECE" filter="url(#fmqm89qajitih)" height="30.2969" style="stroke: #A80036; stroke-width: 1.5;" width="87" x="757.5" y="81.2969"/><text fill="#000000" font-family="sans-serif" font-size="14" lengthAdjust="spacingAndGlyphs" textLength="73" x="764.5" y="101.292">Manager 2</text><rect fill="#FEFECE" filter="url(#fmqm89qajitih)" height="30.2969" style="stroke: #A80036; stroke-width: 1.5;" width="87" x="757.5" y="758.25"/><text fill="#000000" font-family="sans-serif" font-size="14" lengthAdjust="spacingAndGlyphs" textLength="73" x="764.5" y="778.2451">Manager 2</text><rect fill="#FEFECE" filter="url(#fmqm89qajitih)" height="30.2969" style="stroke: #A80036; stroke-width: 1.5;" width="76" x="1203" y="81.2969"/><text fill="#000000" font-family="sans-serif" font-size="14" lengthAdjust="spacingAndGlyphs" textLength="62" x="1210" y="101.292">Worker 2</text><rect fill="#FEFECE" filter="url(#fmqm89qajitih)" height="30.2969" style="stroke: #A80036; stroke-width: 1.5;" width="76" x="1203" y="758.25"/><text fill="#000000" font-family="sans-serif" font-size="14" lengthAdjust="spacingAndGlyphs" textLength="62" x="1210" y="778.2451">Worker 2</text><rect fill="#FEFECE" filter="url(#fmqm89qajitih)" height="30.2969" style="stroke: #A80036; stroke-width: 1.5;" width="87" x="1293" y="81.2969"/><text fill="#000000" font-family="sans-serif" font-size="14" lengthAdjust="spacingAndGlyphs" textLength="73" x="1300" y="101.292">Manager 3</text><rect fill="#FEFECE" filter="url(#fmqm89qajitih)" height="30.2969" style="stroke: #A80036; stroke-width: 1.5;" width="87" x="1293" y="758.25"/><text fill="#000000" font-family="sans-serif" font-size="14" lengthAdjust="spacingAndGlyphs" textLength="73" x="1300" y="778.2451">Manager 3</text><rect fill="#FEFECE" filter="url(#fmqm89qajitih)" height="30.2969" style="stroke: #A80036; stroke-width: 1.5;" width="76" x="1738.5" y="81.2969"/><text fill="#000000" font-family="sans-serif" font-size="14" lengthAdjust="spacingAndGlyphs" textLength="62" x="1745.5" y="101.292">Worker 3</text><rect fill="#FEFECE" filter="url(#fmqm89qajitih)" height="30.2969" style="stroke: #A80036; stroke-width: 1.5;" width="76" x="1738.5" y="758.25"/><text fill="#000000" font-family="sans-serif" font-size="14" lengthAdjust="spacingAndGlyphs" textLength="62" x="1745.5" y="778.2451">Worker 3</text><polygon fill="#A80036" points="459,143.7266,469,147.7266,459,151.7266,463,147.7266" style="stroke: #A80036; stroke-width: 1.0;"/><line style="stroke: #A80036; stroke-width: 1.0;" x1="66" x2="465" y1="147.7266" y2="147.7266"/><text fill="#000000" font-family="sans-serif" font-size="13" lengthAdjust="spacingAndGlyphs" textLength="381" x="73" y="142.6606">modifyResources(nodeId: nid2, resources: [], remove: false)</text><line style="stroke: #A80036; stroke-width: 1.0;" x1="801" x2="791" y1="176.8594" y2="172.8594"/><line style="stroke: #A80036; stroke-width: 1.0;" x1="801" x2="791" y1="176.8594" y2="180.8594"/><line style="stroke: #A80036; stroke-width: 1.0;" x1="471" x2="802" y1="176.8594" y2="176.8594"/><text fill="#000000" font-family="sans-serif" font-size="13" lengthAdjust="spacingAndGlyphs" textLength="308" x="478" y="171.7935">Modification(id: id1, resources: [], remove: false)</text><polygon fill="#A80036" points="1231,201.9922,1241,205.9922,1231,209.9922,1235,205.9922" style="stroke: #A80036; stroke-width: 1.0;"/><line style="stroke: #A80036; stroke-width: 1.0;" x1="803" x2="1237" y1="205.9922" y2="205.9922"/><text fill="#000000" font-family="sans-serif" font-size="13" lengthAdjust="spacingAndGlyphs" textLength="416" x="810" y="200.9263">onModificationRequest(nodeId: nid1, resources: [], remove: false)</text><path d="M1171,218.9922 L1171,243.9922 L1311,243.9922 L1311,228.9922 L1301,218.9922 L1171,218.9922 " fill="#FBFB77" filter="url(#fmqm89qajitih)" style="stroke: #A80036; stroke-width: 1.0;"/><path d="M1301,218.9922 L1301,228.9922 L1311,228.9922 L1301,218.9922 " fill="#FBFB77" style="stroke: #A80036; stroke-width: 1.0;"/><text fill="#000000" font-family="sans-serif" font-size="13" lengthAdjust="spacingAndGlyphs" textLength="119" x="1177" y="236.0591">Resources created</text><line style="stroke: #A80036; stroke-width: 1.0;" x1="471" x2="481" y1="274.2578" y2="270.2578"/><line style="stroke: #A80036; stroke-width: 1.0;" x1="471" x2="481" y1="274.2578" y2="278.2578"/><line style="stroke: #A80036; stroke-width: 1.0; stroke-dasharray: 2.0,2.0;" x1="471" x2="802" y1="274.2578" y2="274.2578"/><text fill="#000000" font-family="sans-serif" font-size="13" lengthAdjust="spacingAndGlyphs" textLength="299" x="488" y="269.1919">ModificationConfirmation(id: id1, success: true)</text><polygon fill="#A80036" points="459,299.3906,469,303.3906,459,307.3906,463,303.3906" style="stroke: #A80036; stroke-width: 1.0;"/><line style="stroke: #A80036; stroke-width: 1.0;" x1="66" x2="465" y1="303.3906" y2="303.3906"/><text fill="#000000" font-family="sans-serif" font-size="13" lengthAdjust="spacingAndGlyphs" textLength="381" x="73" y="298.3247">modifyResources(nodeId: nid3, resources: [], remove: false)</text><line style="stroke: #A80036; stroke-width: 1.0;" x1="1336.5" x2="1326.5" y1="332.5234" y2="328.5234"/><line style="stroke: #A80036; stroke-width: 1.0;" x1="1336.5" x2="1326.5" y1="332.5234" y2="336.5234"/><line style="stroke: #A80036; stroke-width: 1.0;" x1="471" x2="1337.5" y1="332.5234" y2="332.5234"/><text fill="#000000" font-family="sans-serif" font-size="13" lengthAdjust="spacingAndGlyphs" textLength="308" x="478" y="327.4575">Modification(id: id2, resources: [], remove: false)</text><polygon fill="#A80036" points="1766.5,357.6563,1776.5,361.6563,1766.5,365.6563,1770.5,361.6563" style="stroke: #A80036; stroke-width: 1.0;"/><line style="stroke: #A80036; stroke-width: 1.0;" x1="1338.5" x2="1772.5" y1="361.6563" y2="361.6563"/><text fill="#000000" font-family="sans-serif" font-size="13" lengthAdjust="spacingAndGlyphs" textLength="416" x="1345.5" y="356.5903">onModificationRequest(nodeId: nid1, resources: [], remove: false)</text><path d="M1706,374.6563 L1706,399.6563 L1846,399.6563 L1846,384.6563 L1836,374.6563 L1706,374.6563 " fill="#FBFB77" filter="url(#fmqm89qajitih)" style="stroke: #A80036; stroke-width: 1.0;"/><path d="M1836,374.6563 L1836,384.6563 L1846,384.6563 L1836,374.6563 " fill="#FBFB77" style="stroke: #A80036; stroke-width: 1.0;"/><text fill="#000000" font-family="sans-serif" font-size="13" lengthAdjust="spacingAndGlyphs" textLength="119" x="1712" y="391.7231">Resources created</text><line style="stroke: #A80036; stroke-width: 1.0;" x1="471" x2="481" y1="429.9219" y2="425.9219"/><line style="stroke: #A80036; stroke-width: 1.0;" x1="471" x2="481" y1="429.9219" y2="433.9219"/><line style="stroke: #A80036; stroke-width: 1.0; stroke-dasharray: 2.0,2.0;" x1="471" x2="1337.5" y1="429.9219" y2="429.9219"/><text fill="#000000" font-family="sans-serif" font-size="13" lengthAdjust="spacingAndGlyphs" textLength="299" x="488" y="424.856">ModificationConfirmation(id: id3, success: true)</text><polygon fill="#A80036" points="459,455.0547,469,459.0547,459,463.0547,463,459.0547" style="stroke: #A80036; stroke-width: 1.0;"/><line style="stroke: #A80036; stroke-width: 1.0;" x1="66" x2="465" y1="459.0547" y2="459.0547"/><text fill="#000000" font-family="sans-serif" font-size="13" lengthAdjust="spacingAndGlyphs" textLength="377" x="73" y="453.9888">modifyResources(nodeId: nid2, resources: [], remove: true)</text><line style="stroke: #A80036; stroke-width: 1.0;" x1="1336.5" x2="1326.5" y1="488.1875" y2="484.1875"/><line style="stroke: #A80036; stroke-width: 1.0;" x1="1336.5" x2="1326.5" y1="488.1875" y2="492.1875"/><line style="stroke: #A80036; stroke-width: 1.0;" x1="471" x2="1337.5" y1="488.1875" y2="488.1875"/><text fill="#000000" font-family="sans-serif" font-size="13" lengthAdjust="spacingAndGlyphs" textLength="304" x="478" y="483.1216">Modification(id: id3, resources: [], remove: true)</text><polygon fill="#A80036" points="1766.5,513.3203,1776.5,517.3203,1766.5,521.3203,1770.5,517.3203" style="stroke: #A80036; stroke-width: 1.0;"/><line style="stroke: #A80036; stroke-width: 1.0;" x1="1338.5" x2="1772.5" y1="517.3203" y2="517.3203"/><text fill="#000000" font-family="sans-serif" font-size="13" lengthAdjust="spacingAndGlyphs" textLength="412" x="1345.5" y="512.2544">onModificationRequest(nodeId: nid1, resources: [], remove: true)</text><path d="M1707,530.3203 L1707,555.3203 L1846,555.3203 L1846,540.3203 L1836,530.3203 L1707,530.3203 " fill="#FBFB77" filter="url(#fmqm89qajitih)" style="stroke: #A80036; stroke-width: 1.0;"/><path d="M1836,530.3203 L1836,540.3203 L1846,540.3203 L1836,530.3203 " fill="#FBFB77" style="stroke: #A80036; stroke-width: 1.0;"/><text fill="#000000" font-family="sans-serif" font-size="13" lengthAdjust="spacingAndGlyphs" textLength="118" x="1713" y="547.3872">Resources deleted</text><line style="stroke: #A80036; stroke-width: 1.0;" x1="471" x2="481" y1="585.5859" y2="581.5859"/><line style="stroke: #A80036; stroke-width: 1.0;" x1="471" x2="481" y1="585.5859" y2="589.5859"/><line style="stroke: #A80036; stroke-width: 1.0; stroke-dasharray: 2.0,2.0;" x1="471" x2="1337.5" y1="585.5859" y2="585.5859"/><text fill="#000000" font-family="sans-serif" font-size="13" lengthAdjust="spacingAndGlyphs" textLength="299" x="488" y="580.52">ModificationConfirmation(id: id3, success: true)</text><polygon fill="#A80036" points="459,610.7188,469,614.7188,459,618.7188,463,614.7188" style="stroke: #A80036; stroke-width: 1.0;"/><line style="stroke: #A80036; stroke-width: 1.0;" x1="66" x2="465" y1="614.7188" y2="614.7188"/><text fill="#000000" font-family="sans-serif" font-size="13" lengthAdjust="spacingAndGlyphs" textLength="377" x="73" y="609.6528">modifyResources(nodeId: nid3, resources: [], remove: true)</text><line style="stroke: #A80036; stroke-width: 1.0;" x1="801" x2="791" y1="643.8516" y2="639.8516"/><line style="stroke: #A80036; stroke-width: 1.0;" x1="801" x2="791" y1="643.8516" y2="647.8516"/><line style="stroke: #A80036; stroke-width: 1.0;" x1="471" x2="802" y1="643.8516" y2="643.8516"/><text fill="#000000" font-family="sans-serif" font-size="13" lengthAdjust="spacingAndGlyphs" textLength="304" x="478" y="638.7856">Modification(id: id4, resources: [], remove: true)</text><polygon fill="#A80036" points="1231,668.9844,1241,672.9844,1231,676.9844,1235,672.9844" style="stroke: #A80036; stroke-width: 1.0;"/><line style="stroke: #A80036; stroke-width: 1.0;" x1="803" x2="1237" y1="672.9844" y2="672.9844"/><text fill="#000000" font-family="sans-serif" font-size="13" lengthAdjust="spacingAndGlyphs" textLength="412" x="810" y="667.9185">onModificationRequest(nodeId: nid1, resources: [], remove: true)</text><path d="M1171,685.9844 L1171,710.9844 L1310,710.9844 L1310,695.9844 L1300,685.9844 L1171,685.9844 " fill="#FBFB77" filter="url(#fmqm89qajitih)" style="stroke: #A80036; stroke-width: 1.0;"/><path d="M1300,685.9844 L1300,695.9844 L1310,695.9844 L1300,685.9844 " fill="#FBFB77" style="stroke: #A80036; stroke-width: 1.0;"/><text fill="#000000" font-family="sans-serif" font-size="13" lengthAdjust="spacingAndGlyphs" textLength="118" x="1177" y="703.0513">Resources deleted</text><line style="stroke: #A80036; stroke-width: 1.0;" x1="471" x2="481" y1="741.25" y2="737.25"/><line style="stroke: #A80036; stroke-width: 1.0;" x1="471" x2="481" y1="741.25" y2="745.25"/><line style="stroke: #A80036; stroke-width: 1.0; stroke-dasharray: 2.0,2.0;" x1="471" x2="802" y1="741.25" y2="741.25"/><text fill="#000000" font-family="sans-serif" font-size="13" lengthAdjust="spacingAndGlyphs" textLength="299" x="488" y="736.1841">ModificationConfirmation(id: id4, success: true)</text><!--
@startuml
title webnetes Resource Modification Protocol

actor "External System" as es

box Node 1
participant "Manager 1" as m1
participant "Worker 1" as w1
end box

box Node 2
participant "Manager 2" as m2
participant "Worker 2" as w2
end box

box Node 3
participant "Manager 3" as m3
participant "Worker 3" as w3
end box

es -> m1: modifyResources(nodeId: nid2, resources: [], remove: false)

m1 ->> m2: Modification(id: id1, resources: [], remove: false)
m2 -> w2: onModificationRequest(nodeId: nid1, resources: [], remove: false)

note over w2: Resources created

m2 - ->> m1: ModificationConfirmation(id: id1, success: true)

es -> m1: modifyResources(nodeId: nid3, resources: [], remove: false)

m1 ->> m3: Modification(id: id2, resources: [], remove: false)
m3 -> w3: onModificationRequest(nodeId: nid1, resources: [], remove: false)

note over w3: Resources created

m3 - ->> m1: ModificationConfirmation(id: id3, success: true)

es -> m1: modifyResources(nodeId: nid2, resources: [], remove: true)

m1 ->> m3: Modification(id: id3, resources: [], remove: true)
m3 -> w3: onModificationRequest(nodeId: nid1, resources: [], remove: true)

note over w3: Resources deleted

m3 - ->> m1: ModificationConfirmation(id: id3, success: true)

es -> m1: modifyResources(nodeId: nid3, resources: [], remove: true)

m1 ->> m2: Modification(id: id4, resources: [], remove: true)
m2 -> w2: onModificationRequest(nodeId: nid1, resources: [], remove: true)

note over w2: Resources deleted

m2 - ->> m1: ModificationConfirmation(id: id4, success: true)
@enduml

PlantUML version 1.2019.06(Fri May 24 17:10:25 UTC 2019)
(GPL source distribution)
Java Runtime: OpenJDK Runtime Environment
JVM: OpenJDK 64-Bit Server VM
Java Version: 11.0.10+9
Operating System: Linux
OS Version: 5.4.0-1043-azure
Default Encoding: UTF-8
Language: en
Country: null
--></g></svg>